<?xml version="1.0" encoding="UTF-8" standalone="no"?>
<!-- Created with Inkscape (http://www.inkscape.org/) -->

<svg
   version="1.1"
   id="svg9"
   width="500.00003pt"
   height="500.0004pt"
   viewBox="0 0 666.6667 666.66719"
   xmlns="http://www.w3.org/2000/svg"
   xmlns:svg="http://www.w3.org/2000/svg">
  <defs
     id="defs13">
    <clipPath
       clipPathUnits="userSpaceOnUse"
       id="clipPath25">
      <path
         d="M 0,700 H 700 V 0 H 0 Z"
         id="path23" />
    </clipPath>
  </defs>
  <path
     style="fill:#0866ff;fill-opacity:1;fill-rule:nonzero;stroke:none;stroke-width:1.33333"
     d="M 666.66665,333.33334 C 666.66665,149.23868 517.42799,1.5e-5 333.33332,1.5e-5 149.23866,1.5e-5 0,149.23868 0,333.33334 0,489.66 107.62,620.82933 252.80799,656.85067 v -221.656 H 184.072 V 333.33334 h 68.73599 v -43.892 c 0,-113.456 51.344,-166.04266 162.73067,-166.04266 21.11733,0 57.55599,4.14 72.46266,8.28133 v 92.33867 c -7.868,-0.828 -21.532,-1.24267 -38.50933,-1.24267 -54.65733,0 -75.776,20.704 -75.776,74.53333 v 36.024 h 108.87866 l -18.70399,101.86133 h -90.17467 v 229.03066 c 165.048,-19.93466 292.95066,-160.46799 292.95066,-330.89199"
     id="path29" />
</svg>
